<svg xmlns="http://www.w3.org/2000/svg" width="960" height="620" viewBox="0 0 960 620">
  <defs>
    <linearGradient id="bg" x1="0" y1="0" x2="1" y2="1"><stop offset="0" stop-color="#ffffff"/><stop offset="1" stop-color="#eaf8ff"/></linearGradient>
    <linearGradient id="screen" x1="0" y1="0" x2="1" y2="1"><stop offset="0" stop-color="#0f172a"/><stop offset="0.55" stop-color="#1d4ed8"/><stop offset="1" stop-color="#38bdf8"/></linearGradient>
    <filter id="shadow" x="-20%" y="-20%" width="140%" height="140%"><feDropShadow dx="0" dy="18" stdDeviation="18" flood-color="#0f172a" flood-opacity="0.20"/></filter>
  </defs>
  <rect width="960" height="620" rx="34" fill="url(#bg)"/>
  <circle cx="792" cy="112" r="82" fill="#0096d6" opacity="0.12"/>
  <circle cx="152" cy="500" r="100" fill="#0096d6" opacity="0.08"/>
  <g filter="url(#shadow)">
    <rect x="210" y="120" width="540" height="335" rx="26" fill="#1f2937"/>
    <rect x="232" y="145" width="496" height="279" rx="16" fill="url(#screen)"/>
    <path d="M250 155 L725 155 L545 424 L232 424 Z" fill="#ffffff" opacity="0.13"/>
    <rect x="152" y="456" width="656" height="52" rx="18" fill="#e5e7eb"/>
    <path d="M170 456 H790 L844 526 H116 Z" fill="#d1d5db"/>
    <rect x="390" y="474" width="180" height="19" rx="9" fill="#9ca3af" opacity="0.85"/>
    <rect x="116" y="526" width="728" height="16" rx="8" fill="#9ca3af"/>
  </g>
  <rect x="76" y="72" width="204" height="56" rx="28" fill="#0096d6"/>
  <text x="178" y="109" text-anchor="middle" font-family="Inter, Arial, sans-serif" font-size="30" font-weight="800" fill="#ffffff">HP</text>
  <text x="480" y="575" text-anchor="middle" font-family="Inter, Arial, sans-serif" font-size="30" font-weight="800" fill="#0f172a">Computadores de escritorio</text>
  <text x="480" y="602" text-anchor="middle" font-family="Inter, Arial, sans-serif" font-size="19" font-weight="600" fill="#64748b">Intel Core i5 · 8 GB · 512 GB SSD</text>
</svg>