<svg xmlns="http://www.w3.org/2000/svg" width="960" height="620" viewBox="0 0 960 620">
  <defs>
    <linearGradient id="bg" x1="0" y1="0" x2="1" y2="1"><stop offset="0" stop-color="#ffffff"/><stop offset="1" stop-color="#eaf1ff"/></linearGradient>
    <linearGradient id="screen" x1="0" y1="0" x2="1" y2="1"><stop offset="0" stop-color="#111827"/><stop offset="0.65" stop-color="#2563eb"/><stop offset="1" stop-color="#38bdf8"/></linearGradient>
    <filter id="shadow" x="-20%" y="-20%" width="140%" height="140%"><feDropShadow dx="0" dy="18" stdDeviation="18" flood-color="#0f172a" flood-opacity="0.20"/></filter>
  </defs>
  <rect width="960" height="620" rx="34" fill="url(#bg)"/>
  <circle cx="770" cy="115" r="88" fill="#1f4fb2" opacity="0.12"/>
  <g filter="url(#shadow)">
    <rect x="130" y="135" width="500" height="315" rx="26" fill="#1f2937"/>
    <rect x="152" y="158" width="456" height="252" rx="14" fill="url(#screen)"/>
    <rect x="345" y="452" width="70" height="48" rx="6" fill="#374151"/>
    <rect x="260" y="500" width="240" height="18" rx="9" fill="#1f2937"/>
    <rect x="680" y="178" width="122" height="310" rx="24" fill="#111827"/>
    <circle cx="741" cy="232" r="22" fill="#1f4fb2"/>
    <rect x="710" y="290" width="62" height="8" rx="4" fill="#475569"/>
    <rect x="710" y="314" width="62" height="8" rx="4" fill="#475569"/>
    <rect x="710" y="338" width="62" height="8" rx="4" fill="#475569"/>
  </g>
  <rect x="76" y="72" width="204" height="56" rx="28" fill="#1f4fb2"/>
  <text x="178" y="109" text-anchor="middle" font-family="Inter, Arial, sans-serif" font-size="30" font-weight="800" fill="#ffffff">Samsung</text>
  <text x="480" y="575" text-anchor="middle" font-family="Inter, Arial, sans-serif" font-size="30" font-weight="800" fill="#0f172a">Monitores</text>
  <text x="480" y="602" text-anchor="middle" font-family="Inter, Arial, sans-serif" font-size="19" font-weight="600" fill="#64748b">N/A · N/A</text>
</svg>