<svg xmlns="http://www.w3.org/2000/svg" width="960" height="620" viewBox="0 0 960 620">
  <defs>
    <linearGradient id="bg" x1="0" y1="0" x2="1" y2="1"><stop offset="0" stop-color="#ffffff"/><stop offset="1" stop-color="#fff0df"/></linearGradient>
    <linearGradient id="screen" x1="0" y1="0" x2="1" y2="1"><stop offset="0" stop-color="#111827"/><stop offset="0.48" stop-color="#1e3a8a"/><stop offset="1" stop-color="#06b6d4"/></linearGradient>
    <linearGradient id="shine" x1="0" y1="0" x2="1" y2="1"><stop offset="0" stop-color="#ffffff" stop-opacity="0.45"/><stop offset="1" stop-color="#ffffff" stop-opacity="0"/></linearGradient>
    <filter id="shadow" x="-20%" y="-20%" width="140%" height="140%"><feDropShadow dx="0" dy="18" stdDeviation="18" flood-color="#0f172a" flood-opacity="0.20"/></filter>
  </defs>
  <rect width="960" height="620" rx="34" fill="url(#bg)"/>
  <circle cx="805" cy="105" r="74" fill="#ff6900" opacity="0.12"/>
  <circle cx="115" cy="485" r="94" fill="#ff6900" opacity="0.10"/>
  <g filter="url(#shadow)">
    <rect x="120" y="118" width="720" height="390" rx="28" fill="#101827"/>
    <rect x="140" y="138" width="680" height="335" rx="18" fill="url(#screen)"/>
    <path d="M150 145 L815 145 L565 472 L140 472 Z" fill="url(#shine)"/>
    <path d="M180 430 C250 350 320 380 375 315 C450 225 520 265 590 180 C650 112 735 150 815 115 L815 472 L180 472 Z" fill="#22c55e" opacity="0.20"/>
    <path d="M142 474 H818" stroke="#334155" stroke-width="7" opacity="0.9"/>
    <rect x="445" y="506" width="70" height="45" rx="5" fill="#374151"/>
    <rect x="346" y="548" width="268" height="18" rx="9" fill="#1f2937"/>
  </g>
  <rect x="74" y="70" width="188" height="56" rx="28" fill="#ff6900"/>
  <text x="168" y="108" text-anchor="middle" font-family="Inter, Arial, sans-serif" font-size="30" font-weight="800" fill="#ffffff">Xiaomi</text>
  <text x="480" y="568" text-anchor="middle" font-family="Inter, Arial, sans-serif" font-size="32" font-weight="800" fill="#0f172a">Smart TV 50”</text>
  <text x="480" y="596" text-anchor="middle" font-family="Inter, Arial, sans-serif" font-size="20" font-weight="600" fill="#64748b">LED 4K UHD · Google TV</text>
</svg>